<svg width="1024" height="1024" viewBox="0 0 1024 1024" fill="none" xmlns="http://www.w3.org/2000/svg">
<g id="Icon">
<rect width="1024" height="1024" rx="220" fill="url(#paint0_linear_16_165)"/>
<g id="Bold Duotone / Settings, Fine Tuning / Widget 5">
<path id="Vector" opacity="0.5" d="M545.75 626.75C545.75 556.746 545.75 521.744 567.991 499.998C590.233 478.25 626.031 478.25 697.625 478.25C769.219 478.25 805.017 478.25 827.259 499.998C849.5 521.744 849.5 556.746 849.5 626.75V701C849.5 771.004 849.5 806.006 827.259 827.752C805.017 849.5 769.219 849.5 697.625 849.5C626.031 849.5 590.233 849.5 567.991 827.752C545.75 806.006 545.75 771.004 545.75 701V626.75Z" fill="white"/>
<path id="Vector_2" d="M174.5 397.25C174.5 467.254 174.5 502.256 196.742 524.002C218.983 545.75 254.78 545.75 326.375 545.75C397.97 545.75 433.767 545.75 456.009 524.002C478.25 502.256 478.25 467.254 478.25 397.25V323C478.25 252.996 478.25 217.995 456.009 196.247C433.767 174.5 397.97 174.5 326.375 174.5C254.78 174.5 218.983 174.5 196.742 196.247C174.5 217.995 174.5 252.996 174.5 323V397.25Z" fill="white"/>
<path id="Vector_3" d="M545.75 292.625C545.75 255.932 545.75 237.585 551.531 223.114C559.236 203.818 574.019 188.487 592.629 180.494C606.581 174.5 624.273 174.5 659.656 174.5H735.594C770.977 174.5 788.669 174.5 802.621 180.494C821.231 188.487 836.013 203.818 843.719 223.114C849.5 237.585 849.5 255.932 849.5 292.625C849.5 329.318 849.5 347.664 843.719 362.136C836.013 381.432 821.231 396.763 802.621 404.756C788.669 410.75 770.977 410.75 735.594 410.75H659.656C624.273 410.75 606.581 410.75 592.629 404.756C574.019 396.763 559.236 381.432 551.531 362.136C545.75 347.664 545.75 329.318 545.75 292.625Z" fill="white"/>
<path id="Vector_4" opacity="0.5" d="M174.5 731.375C174.5 768.068 174.5 786.415 180.28 800.887C187.988 820.181 202.771 835.514 221.377 843.506C235.333 849.5 253.024 849.5 288.406 849.5H364.344C399.726 849.5 417.417 849.5 431.373 843.506C449.981 835.514 464.764 820.181 472.469 800.887C478.25 786.415 478.25 768.068 478.25 731.375C478.25 694.682 478.25 676.335 472.469 661.863C464.764 642.569 449.981 627.236 431.373 619.244C417.417 613.25 399.726 613.25 364.344 613.25H288.406C253.024 613.25 235.333 613.25 221.377 619.244C202.771 627.236 187.988 642.569 180.28 661.863C174.5 676.335 174.5 694.682 174.5 731.375Z" fill="white"/>
</g>
</g>
<defs>
<linearGradient id="paint0_linear_16_165" x1="512" y1="0" x2="512" y2="1024" gradientUnits="userSpaceOnUse">
<stop stop-color="#007E7A"/>
<stop offset="1" stop-color="#004B50"/>
</linearGradient>
</defs>
</svg>
